<svg version="1.0" xmlns="http://www.w3.org/2000/svg"
 width="512.000000pt" height="512.000000pt" viewBox="0 0 512.000000 512.000000"
 preserveAspectRatio="xMidYMid meet">
<metadata>
Created by potrace 1.11, written by Peter Selinger 2001-2013
</metadata>
<g transform="translate(0.000000,512.000000) scale(0.100000,-0.100000)">
<path d="M3946 4280 c-54 -27 -76 -48 -97 -95 -25 -55 -24 -118 4 -173 18 -37
41 -57 127 -115 261 -173 431 -356 564 -607 124 -236 181 -467 179 -735 -1
-257 -54 -478 -168 -705 -124 -246 -344 -488 -566 -621 -118 -71 -161 -129
-161 -215 0 -111 106 -204 217 -189 47 6 96 31 210 107 340 229 609 575 745
958 41 112 75 237 85 306 4 21 8 46 11 54 18 63 25 401 11 533 -25 239 -116
515 -248 757 -104 188 -295 408 -499 574 -46 37 -216 148 -250 163 -55 24
-119 25 -164 3z"/>
<path d="M751 4128 c-50 -9 -101 -44 -129 -90 -11 -18 -100 -312 -197 -653
-98 -341 -178 -621 -179 -622 -2 -2 -27 -5 -56 -8 -52 -5 -111 -33 -138 -65
-69 -81 -62 -199 15 -272 50 -48 85 -56 238 -54 126 2 145 5 180 25 71 41 83
65 160 334 40 139 75 261 77 272 6 28 28 -88 64 -340 3 -22 12 -77 19 -121 8
-45 17 -103 20 -130 4 -27 13 -87 20 -134 8 -47 17 -105 20 -130 4 -25 15 -97
25 -160 10 -63 21 -137 25 -163 3 -26 10 -69 15 -95 4 -26 13 -83 19 -128 7
-44 13 -89 15 -100 2 -10 7 -39 10 -64 26 -174 86 -243 210 -244 85 0 164 59
185 138 11 39 68 278 77 321 2 11 20 90 40 175 20 85 37 162 39 170 2 8 13 56
24 105 11 50 34 147 50 217 17 69 32 137 35 150 3 13 21 93 41 178 20 85 39
166 41 180 3 14 11 50 19 80 8 30 16 66 19 80 9 47 35 152 38 156 2 2 44 -137
93 -309 93 -329 110 -375 153 -413 55 -48 83 -51 437 -50 l330 1 42 -51 c123
-150 340 -189 503 -91 181 109 243 331 148 522 -24 47 -111 135 -159 159 -78
41 -193 58 -264 42 -51 -12 -89 -27 -123 -47 -41 -25 -113 -93 -129 -123 -10
-18 -25 -19 -253 -20 -133 -1 -245 1 -250 4 -4 3 -85 277 -180 610 -95 333
-180 623 -190 645 -73 163 -301 152 -362 -16 -9 -24 -62 -244 -118 -489 -161
-705 -248 -1078 -250 -1070 -6 21 -11 51 -30 179 -6 41 -12 83 -15 95 -2 12
-7 39 -10 61 -16 116 -37 253 -41 275 -2 14 -13 86 -24 160 -12 74 -25 160
-30 190 -13 73 -18 106 -25 160 -3 25 -15 99 -25 165 -10 66 -22 140 -25 165
-24 179 -109 262 -244 238z"/>
<path d="M3565 3598 c-78 -27 -133 -121 -120 -205 10 -71 38 -108 128 -171
130 -91 205 -172 271 -294 93 -173 117 -399 60 -588 -52 -176 -164 -329 -314
-430 -121 -81 -151 -127 -145 -221 8 -133 136 -214 260 -167 65 26 218 137
278 203 10 11 35 38 55 60 21 22 54 63 74 90 41 58 128 212 128 229 0 6 6 23
14 37 7 14 26 75 41 135 40 156 44 361 10 519 -56 264 -173 466 -381 656 -44
40 -175 128 -217 147 -33 14 -100 14 -142 0z"/>
</g>
</svg>
